<svg width="144" height="48" viewBox="0 0 144 48" xmlns="http://www.w3.org/2000/svg"><g fill="none" fill-rule="evenodd"><path d="M26.321 11.892c17.817 18.253-8.222 21.643-6.024 30.048-1.061-1.062-1.846-2.053-2.407-2.983-2.736 2.791-4.718 5.405-3.905 8.622-16.434-16.633 11.16-21.25 12.336-35.687z" fill="#666D70"/><path d="M6.271 35.686c-17.817-18.253 8.22-21.643 6.023-30.048 1.06 1.064 1.846 2.053 2.406 2.984C17.437 5.832 19.42 3.217 18.607 0 35.04 16.633 7.445 21.25 6.27 35.686z" fill="#B32325"/><g><g fill="#B32325"><path d="M122.108 25.052l.843-4.045h-7.86l.42-2.023h8.381l.84-4.046h-10.324c-2.87-.078-4.533 1.146-5.118 3.581l-1.848 8.95c-.401 2.49.808 3.691 3.694 3.652h10.258l.843-4.046h-8.416l.419-2.023h7.868zM63.144 14.939h-3.416l.426-2.023h-6.296l-.418 2.023h-3.43c-2.87-.079-4.598 1.102-5.185 3.539l-1.844 8.946c-.4 2.493.873 3.736 3.759 3.697h3.332l-.405 2.021h6.291l.419-2.02h3.517c2.871.077 4.537-1.094 5.122-3.53l1.856-8.947c.4-2.49-.841-3.745-3.728-3.706zm-12.22 12.136h-1.58c1.556-7.423.937-4.438 1.726-8.091h1.53l-1.676 8.09zm7.893 0H57.24l1.681-8.091h1.576c-1.557 7.422-.892 4.438-1.681 8.09zM141.555 17.085c-.277-1.353-1.218-2.067-2.819-2.147h-3.16c-1.858-.005-3.062.074-4.591 2.453l-7.842 13.73h6.305l7.007-12.137.525 12.137 6.806.005-2.231-14.04zM108.434 14.934h-7.329l-5.394 6.073 1.261-6.069h-6.305l-3.362 16.183h6.304l1.365-6.574 2.888 6.578h7.69l-4.374-8.604zM83.682 17.085c-.278-1.353-1.126-2.067-2.727-2.147h-3.16c-1.86-.005-2.966.126-4.495 2.506L65.492 31.12h6.305l1.734-3.036h5.6l.097 3.036h6.647l-2.193-14.036zm-7.84 6.955l2.89-5.056.252 5.056h-3.142z"/></g><path d="M67.75 37.287v.895a2.81 2.81 0 00-.857-.596 2.382 2.382 0 00-.965-.198c-.669 0-1.183.22-1.54.658-.356.438-.535 1.072-.535 1.9 0 .83.18 1.46.536 1.9.356.438.87.658 1.54.658.34 0 .661-.066.964-.198.302-.132.588-.332.857-.597v.887a3.121 3.121 0 01-1.865.606c-.892 0-1.592-.292-2.102-.873-.508-.58-.763-1.374-.763-2.382s.255-1.803.763-2.384c.51-.581 1.21-.873 2.102-.873.349 0 .68.05.992.15a3 3 0 01.873.447zm5.699-.483v6.276h-.795v-5.562h-2.881v5.561h-.796v-6.275h4.472zm1.581 0h3.709v.714h-2.913v1.858h2.795v.715h-2.795v2.274h2.986v.715H75.03v-6.276h0zm9.556 6.276h-4.472v-6.276h.796v5.561h2.881v-5.561h.795v5.561h.67v2.064h-.67v-1.35zm4.157-5.701c-.577 0-1.034.23-1.373.69-.34.46-.51 1.086-.51 1.878 0 .791.17 1.417.51 1.876.338.459.796.689 1.373.689s1.033-.23 1.372-.69c.336-.458.506-1.084.506-1.875 0-.792-.17-1.419-.506-1.878-.34-.46-.795-.69-1.372-.69zm0-.69c.824 0 1.482.295 1.974.886.492.59.738 1.38.738 2.372 0 .99-.246 1.78-.738 2.37-.492.59-1.15.885-1.974.885-.824 0-1.483-.294-1.977-.883-.493-.588-.74-1.379-.74-2.372 0-.991.247-1.782.74-2.372.494-.59 1.153-.885 1.977-.885zm4.995 5.676h2.595v-4.847h-1.905v.89c0 1.4-.146 2.562-.442 3.49-.06.192-.142.347-.248.467zm-1.157 0c.35-.176.576-.434.677-.769.254-.864.38-2.066.38-3.607v-1.185h3.49v5.561h.668v2.064h-.668v-1.35H92.97v1.35h-.668v-2.064h.28zm6.403-5.561h3.709v.714H99.78v1.858h2.794v.715H99.78v2.274h2.986v.715h-3.782v-6.276zm8.232 0h.795v3.102l2.677-3.102h.964l-2.143 2.476 2.279 3.8h-.826l-1.94-3.233-1.011 1.172v2.06h-.795v-2.06l-1.013-1.172-1.94 3.233h-.83l2.28-3.8-2.14-2.476h.961l2.682 3.102v-3.102h0zm6.563 5.561h2.595v-4.847h-1.905v.89c0 1.4-.146 2.562-.441 3.49a1.285 1.285 0 01-.25.467zm-1.157 0c.35-.176.575-.434.677-.769.253-.864.38-2.066.38-3.607v-1.185h3.49v5.561h.667v2.064h-.668v-1.35h-4.157v1.35h-.668v-2.064h.279zm8.364-4.725l-1.08 3.124h2.162l-1.082-3.124zm-.45-.836h.903l2.236 6.276h-.824l-.538-1.61h-2.646l-.532 1.61h-.84l2.241-6.276z" stroke="#666D70" stroke-width=".179" fill="#666D70"/></g></g></svg>